<?xml version="1.0" standalone="no"?>
<!DOCTYPE svg PUBLIC "-//W3C//DTD SVG 20010904//EN"
 "http://www.w3.org/TR/2001/REC-SVG-20010904/DTD/svg10.dtd">
<svg version="1.0" xmlns="http://www.w3.org/2000/svg"
 width="300.000000pt" height="300.000000pt" viewBox="0 0 300.000000 300.000000"
 preserveAspectRatio="xMidYMid meet">
<metadata>
Created by potrace 1.15, written by Peter Selinger 2001-2017
</metadata>
<g transform="translate(0.000000,300.000000) scale(0.100000,-0.100000)"
fill="#000000" stroke="none">
<path d="M1276 2674 c-490 -88 -888 -483 -971 -962 -19 -109 -19 -315 0 -424
16 -92 62 -232 102 -313 170 -338 502 -584 877 -650 114 -19 318 -19 432 0
495 87 895 480 979 963 19 109 19 315 0 424 -16 92 -62 232 -102 313 -170 338
-502 584 -877 650 -110 19 -332 18 -440 -1z m397 -59 c620 -93 1060 -679 962
-1281 -27 -168 -78 -299 -171 -443 -283 -433 -836 -625 -1326 -461 -529 177
-859 706 -773 1236 100 620 684 1043 1308 949z"/>
<path d="M1448 2347 c-31 -17 -185 -115 -343 -217 l-286 -185 4 -565 c5 -527
6 -567 23 -598 12 -19 30 -35 48 -40 38 -10 96 -3 96 12 0 8 43 3 143 -16 266
-52 247 -47 247 -72 0 -13 6 -28 13 -33 22 -19 116 -35 157 -28 35 6 40 10 40
34 l0 28 103 7 c56 4 117 9 135 12 24 5 32 3 32 -9 0 -10 17 -16 63 -21 92 -9
127 0 134 35 4 24 11 28 42 31 l36 3 -3 750 c-2 412 -5 752 -8 754 -8 9 -569
151 -594 151 -14 0 -50 -15 -82 -33z"/>
</g>
</svg>
